<?xml version="1.0" encoding="UTF-8"?>
<svg xmlns="http://www.w3.org/2000/svg" xmlns:xlink="http://www.w3.org/1999/xlink" width="24px" height="24px" viewBox="0 0 24 24" version="1.1">
<g id="surface1">
<path style=" stroke:none;fill-rule:nonzero;fill:rgb(0%,0%,0%);fill-opacity:1;" d="M 19.640625 2.25 C 19.671875 2.269531 19.703125 2.289062 19.734375 2.308594 C 20.242188 2.6875 20.398438 3.5 20.589844 4.074219 C 20.621094 4.167969 20.652344 4.261719 20.683594 4.359375 C 20.765625 4.605469 20.847656 4.851562 20.933594 5.101562 C 21.03125 5.402344 21.132812 5.703125 21.234375 6.003906 C 21.3125 6.238281 21.390625 6.472656 21.46875 6.703125 C 21.496094 6.789062 21.523438 6.875 21.554688 6.960938 C 21.566406 7 21.578125 7.039062 21.59375 7.082031 C 21.679688 7.335938 21.765625 7.585938 21.859375 7.835938 C 21.890625 7.921875 21.890625 7.921875 21.890625 8.015625 C 21.945312 8.019531 22 8.023438 22.054688 8.027344 C 22.648438 8.105469 23.167969 8.5 23.53125 8.953125 C 23.914062 9.496094 24.023438 10.011719 24.023438 10.667969 C 24.023438 10.726562 24.023438 10.785156 24.023438 10.847656 C 24.023438 11.003906 24.023438 11.15625 24.023438 11.3125 C 24.023438 11.441406 24.023438 11.566406 24.027344 11.695312 C 24.027344 11.847656 24.027344 12 24.027344 12.152344 C 24.027344 12.207031 24.03125 12.265625 24.03125 12.320312 C 24.027344 12.714844 24.027344 12.714844 23.890625 12.902344 C 23.730469 13.007812 23.609375 13.035156 23.421875 13.042969 C 22.691406 13.0625 22.078125 13.136719 21.546875 13.699219 C 21.109375 14.222656 21.039062 14.761719 21.09375 15.421875 C 21.1875 15.890625 21.476562 16.277344 21.84375 16.578125 C 22.304688 16.886719 22.742188 16.929688 23.28125 16.941406 C 23.511719 16.949219 23.671875 16.960938 23.859375 17.109375 C 23.882812 17.128906 23.910156 17.148438 23.933594 17.167969 C 24.027344 17.28125 24.019531 17.359375 24.019531 17.507812 C 24.019531 17.558594 24.019531 17.609375 24.019531 17.664062 C 24.019531 17.75 24.019531 17.75 24.019531 17.835938 C 24.019531 17.894531 24.019531 17.953125 24.019531 18.015625 C 24.019531 18.140625 24.019531 18.265625 24.019531 18.390625 C 24.019531 18.515625 24.019531 18.640625 24.023438 18.769531 C 24.023438 18.953125 24.023438 19.136719 24.023438 19.320312 C 24.023438 19.375 24.023438 19.429688 24.023438 19.488281 C 24.019531 20.210938 23.777344 20.796875 23.28125 21.320312 C 22.777344 21.800781 22.152344 22.035156 21.457031 22.039062 C 21.40625 22.039062 21.40625 22.039062 21.355469 22.039062 C 21.246094 22.039062 21.132812 22.039062 21.023438 22.039062 C 20.941406 22.039062 20.863281 22.039062 20.78125 22.039062 C 20.558594 22.039062 20.335938 22.039062 20.117188 22.039062 C 19.875 22.039062 19.636719 22.039062 19.398438 22.039062 C 18.875 22.039062 18.351562 22.039062 17.832031 22.039062 C 17.503906 22.039062 17.175781 22.039062 16.851562 22.042969 C 15.945312 22.042969 15.042969 22.042969 14.140625 22.042969 C 14.082031 22.042969 14.023438 22.042969 13.964844 22.042969 C 13.875 22.042969 13.875 22.042969 13.789062 22.042969 C 13.671875 22.042969 13.550781 22.042969 13.433594 22.042969 C 13.375 22.042969 13.320312 22.042969 13.257812 22.042969 C 12.3125 22.042969 11.371094 22.042969 10.425781 22.042969 C 9.457031 22.046875 8.484375 22.046875 7.515625 22.046875 C 6.972656 22.046875 6.425781 22.046875 5.882812 22.046875 C 5.417969 22.046875 4.957031 22.046875 4.492188 22.046875 C 4.253906 22.046875 4.019531 22.046875 3.78125 22.046875 C 3.566406 22.050781 3.347656 22.050781 3.132812 22.046875 C 3.054688 22.046875 2.976562 22.046875 2.898438 22.050781 C 2.058594 22.054688 1.339844 21.898438 0.714844 21.296875 C 0.300781 20.863281 0 20.359375 -0.0078125 19.746094 C -0.0117188 19.691406 -0.0117188 19.636719 -0.0117188 19.578125 C -0.0117188 19.328125 -0.015625 19.082031 -0.015625 18.832031 C -0.015625 18.703125 -0.0195312 18.570312 -0.0195312 18.4375 C -0.0234375 18.25 -0.0234375 18.058594 -0.0234375 17.871094 C -0.0273438 17.8125 -0.0273438 17.753906 -0.0273438 17.695312 C -0.0273438 17.242188 -0.0273438 17.242188 0.109375 17.097656 C 0.269531 16.992188 0.390625 16.964844 0.578125 16.957031 C 1.253906 16.9375 1.835938 16.886719 2.355469 16.402344 C 2.554688 16.1875 2.707031 15.972656 2.8125 15.703125 C 2.835938 15.640625 2.835938 15.640625 2.863281 15.578125 C 2.996094 15.097656 2.960938 14.5 2.71875 14.0625 C 2.40625 13.578125 2.003906 13.253906 1.441406 13.097656 C 1.203125 13.0625 0.960938 13.0625 0.71875 13.058594 C 0.488281 13.050781 0.328125 13.039062 0.140625 12.890625 C 0.117188 12.871094 0.0898438 12.851562 0.0664062 12.832031 C -0.0273438 12.714844 -0.0195312 12.636719 -0.0195312 12.488281 C -0.0195312 12.433594 -0.0195312 12.382812 -0.0195312 12.328125 C -0.0195312 12.269531 -0.0195312 12.210938 -0.0195312 12.152344 C -0.0195312 12.089844 -0.0195312 12.03125 -0.0195312 11.96875 C -0.0234375 11.84375 -0.0195312 11.714844 -0.0195312 11.589844 C -0.0195312 11.425781 -0.0195312 11.265625 -0.0234375 11.105469 C -0.0234375 10.949219 -0.0234375 10.792969 -0.0234375 10.640625 C -0.0234375 10.582031 -0.0234375 10.523438 -0.0234375 10.464844 C -0.0195312 9.75 0.246094 9.1875 0.722656 8.664062 C 1.121094 8.289062 1.585938 8.078125 2.121094 7.988281 C 2.730469 7.871094 3.296875 7.636719 3.875 7.417969 C 4.039062 7.355469 4.203125 7.292969 4.367188 7.230469 C 4.609375 7.136719 4.851562 7.046875 5.09375 6.953125 C 5.757812 6.699219 6.421875 6.449219 7.085938 6.203125 C 7.261719 6.136719 7.4375 6.070312 7.613281 6.003906 C 8.707031 5.59375 9.800781 5.1875 10.894531 4.78125 C 11.820312 4.4375 12.746094 4.089844 13.671875 3.742188 C 14.71875 3.351562 15.765625 2.960938 16.8125 2.570312 C 16.921875 2.53125 17.03125 2.492188 17.140625 2.449219 C 17.308594 2.386719 17.476562 2.324219 17.644531 2.261719 C 17.734375 2.230469 17.820312 2.199219 17.910156 2.164062 C 17.988281 2.136719 17.988281 2.136719 18.070312 2.105469 C 18.113281 2.089844 18.15625 2.074219 18.203125 2.054688 C 18.707031 1.890625 19.199219 1.964844 19.640625 2.25 Z M 18.007812 3.238281 C 17.953125 3.257812 17.898438 3.277344 17.84375 3.300781 C 17.691406 3.355469 17.542969 3.414062 17.390625 3.472656 C 17.230469 3.53125 17.070312 3.59375 16.90625 3.652344 C 16.632812 3.757812 16.355469 3.859375 16.082031 3.964844 C 15.664062 4.121094 15.246094 4.277344 14.828125 4.4375 C 14.757812 4.460938 14.691406 4.488281 14.621094 4.511719 C 14.515625 4.550781 14.410156 4.589844 14.308594 4.628906 C 14.058594 4.722656 13.8125 4.816406 13.566406 4.910156 C 12.542969 5.292969 11.515625 5.675781 10.492188 6.054688 C 9.398438 6.460938 8.308594 6.867188 7.21875 7.277344 C 6.640625 7.492188 6.0625 7.710938 5.484375 7.921875 C 5.484375 7.9375 5.484375 7.953125 5.484375 7.96875 C 10.527344 7.96875 15.570312 7.96875 20.765625 7.96875 C 20.265625 6.417969 20.265625 6.417969 19.75 4.875 C 19.707031 4.746094 19.664062 4.621094 19.621094 4.492188 C 19.570312 4.332031 19.515625 4.175781 19.460938 4.015625 C 19.433594 3.929688 19.40625 3.839844 19.375 3.753906 C 19.347656 3.675781 19.347656 3.675781 19.320312 3.59375 C 19.304688 3.546875 19.289062 3.503906 19.273438 3.453125 C 19.199219 3.285156 19.109375 3.132812 18.9375 3.046875 C 18.59375 3.015625 18.328125 3.117188 18.007812 3.238281 Z M 1.347656 9.554688 C 1.078125 9.886719 1.023438 10.207031 1.027344 10.625 C 1.027344 10.664062 1.027344 10.707031 1.027344 10.746094 C 1.027344 10.871094 1.027344 10.996094 1.027344 11.121094 C 1.027344 11.207031 1.027344 11.289062 1.027344 11.375 C 1.03125 11.585938 1.03125 11.792969 1.03125 12 C 1.082031 12.003906 1.132812 12.011719 1.183594 12.015625 C 1.25 12.023438 1.320312 12.03125 1.386719 12.039062 C 1.417969 12.042969 1.453125 12.046875 1.488281 12.050781 C 2.214844 12.136719 2.859375 12.523438 3.328125 13.078125 C 3.824219 13.734375 4.050781 14.507812 3.984375 15.328125 C 3.855469 16.203125 3.4375 16.941406 2.730469 17.476562 C 2.191406 17.828125 1.65625 17.933594 1.03125 18 C 1.027344 18.246094 1.023438 18.488281 1.019531 18.734375 C 1.019531 18.820312 1.019531 18.902344 1.015625 18.984375 C 1.003906 19.597656 1.019531 20.074219 1.460938 20.542969 C 1.921875 20.980469 2.414062 21.007812 3.023438 21.003906 C 3.078125 21.003906 3.132812 21.003906 3.1875 21.003906 C 3.363281 21.003906 3.539062 21.003906 3.714844 21.003906 C 3.839844 21.003906 3.960938 21.003906 4.082031 21.003906 C 4.371094 21.003906 4.660156 21.003906 4.949219 21.003906 C 5.28125 21.003906 5.609375 21.003906 5.9375 21.003906 C 6.613281 21 7.292969 21 7.96875 21 C 7.96875 20.957031 7.972656 20.910156 7.972656 20.863281 C 7.976562 20.804688 7.980469 20.746094 7.984375 20.6875 C 7.984375 20.628906 7.988281 20.570312 7.992188 20.511719 C 8.015625 20.339844 8.054688 20.246094 8.15625 20.109375 C 8.292969 20.015625 8.390625 20.003906 8.554688 20.023438 C 8.589844 20.023438 8.625 20.027344 8.660156 20.03125 C 8.808594 20.074219 8.859375 20.128906 8.953125 20.25 C 8.972656 20.382812 8.984375 20.503906 8.988281 20.636719 C 8.988281 20.671875 8.992188 20.707031 8.992188 20.742188 C 8.996094 20.828125 8.996094 20.914062 9 21 C 10.585938 21.003906 12.171875 21.003906 13.757812 21.003906 C 13.945312 21.003906 14.132812 21.003906 14.320312 21.003906 C 14.378906 21.003906 14.378906 21.003906 14.433594 21.003906 C 15.039062 21.003906 15.640625 21.007812 16.246094 21.007812 C 16.863281 21.007812 17.484375 21.007812 18.105469 21.007812 C 18.488281 21.007812 18.867188 21.007812 19.25 21.011719 C 19.511719 21.011719 19.777344 21.011719 20.039062 21.011719 C 20.1875 21.011719 20.339844 21.011719 20.492188 21.011719 C 20.65625 21.011719 20.820312 21.011719 20.984375 21.011719 C 21.03125 21.011719 21.078125 21.011719 21.128906 21.011719 C 21.675781 21.011719 22.152344 20.925781 22.558594 20.542969 C 22.894531 20.191406 22.976562 19.851562 22.972656 19.375 C 22.972656 19.335938 22.972656 19.292969 22.972656 19.253906 C 22.972656 19.128906 22.972656 19.003906 22.972656 18.878906 C 22.972656 18.792969 22.972656 18.710938 22.972656 18.625 C 22.96875 18.414062 22.96875 18.207031 22.96875 18 C 22.917969 17.996094 22.867188 17.988281 22.816406 17.984375 C 22.75 17.976562 22.679688 17.96875 22.613281 17.960938 C 22.5625 17.953125 22.5625 17.953125 22.511719 17.949219 C 21.765625 17.859375 21.101562 17.453125 20.625 16.875 C 20.136719 16.164062 19.898438 15.335938 20.046875 14.472656 C 20.207031 13.667969 20.613281 13.019531 21.269531 12.523438 C 21.808594 12.171875 22.34375 12.066406 22.96875 12 C 22.972656 11.753906 22.976562 11.511719 22.980469 11.265625 C 22.980469 11.179688 22.980469 11.097656 22.984375 11.015625 C 22.996094 10.402344 22.980469 9.925781 22.539062 9.457031 C 22.085938 9.027344 21.601562 8.992188 21 8.996094 C 20.925781 8.996094 20.925781 8.996094 20.84375 8.996094 C 20.671875 8.996094 20.5 8.996094 20.328125 8.996094 C 20.207031 8.996094 20.082031 8.996094 19.960938 8.996094 C 19.695312 8.996094 19.429688 8.996094 19.164062 8.996094 C 18.78125 8.996094 18.394531 8.996094 18.011719 8.996094 C 17.390625 8.996094 16.765625 8.996094 16.144531 8.996094 C 15.539062 8.996094 14.933594 8.996094 14.328125 8.996094 C 14.292969 8.996094 14.253906 8.996094 14.214844 8.996094 C 14.027344 8.996094 13.84375 8.996094 13.65625 8.996094 C 12.101562 9 10.550781 9 9 9 C 9 9.050781 8.996094 9.105469 8.996094 9.15625 C 8.992188 9.226562 8.992188 9.292969 8.988281 9.363281 C 8.988281 9.398438 8.988281 9.433594 8.984375 9.46875 C 8.980469 9.632812 8.96875 9.730469 8.863281 9.867188 C 8.703125 9.984375 8.542969 9.992188 8.34375 9.984375 C 8.207031 9.929688 8.140625 9.886719 8.058594 9.765625 C 8 9.617188 7.996094 9.476562 7.984375 9.316406 C 7.980469 9.226562 7.980469 9.226562 7.976562 9.136719 C 7.972656 9.089844 7.972656 9.046875 7.96875 9 C 7.261719 8.996094 6.554688 8.996094 5.847656 8.996094 C 5.519531 8.996094 5.191406 8.992188 4.863281 8.992188 C 4.546875 8.992188 4.230469 8.992188 3.910156 8.992188 C 3.792969 8.992188 3.671875 8.992188 3.550781 8.988281 C 3.378906 8.988281 3.210938 8.988281 3.042969 8.988281 C 2.964844 8.988281 2.964844 8.988281 2.890625 8.988281 C 2.273438 8.988281 1.785156 9.097656 1.347656 9.554688 Z M 1.347656 9.554688 "/>
<path style=" stroke:none;fill-rule:nonzero;fill:rgb(0%,0%,0%);fill-opacity:1;" d="M 8.671875 15.75 C 8.929688 15.894531 8.929688 15.894531 9 16.03125 C 9.003906 16.097656 9.007812 16.167969 9.007812 16.234375 C 9.007812 16.277344 9.007812 16.320312 9.011719 16.363281 C 9.011719 16.410156 9.011719 16.457031 9.011719 16.503906 C 9.011719 16.550781 9.011719 16.597656 9.011719 16.648438 C 9.011719 16.746094 9.011719 16.847656 9.015625 16.945312 C 9.015625 17.097656 9.015625 17.253906 9.019531 17.40625 C 9.019531 17.503906 9.019531 17.597656 9.019531 17.695312 C 9.019531 17.742188 9.023438 17.789062 9.023438 17.835938 C 9.023438 18.039062 9.019531 18.15625 8.910156 18.332031 C 8.746094 18.480469 8.621094 18.488281 8.40625 18.484375 C 8.21875 18.457031 8.140625 18.371094 8.015625 18.234375 C 7.972656 18.109375 7.960938 18.03125 7.960938 17.902344 C 7.960938 17.863281 7.960938 17.824219 7.957031 17.785156 C 7.957031 17.742188 7.957031 17.703125 7.957031 17.660156 C 7.957031 17.617188 7.957031 17.574219 7.957031 17.53125 C 7.957031 17.4375 7.957031 17.347656 7.953125 17.257812 C 7.953125 17.121094 7.953125 16.980469 7.949219 16.84375 C 7.949219 16.753906 7.949219 16.667969 7.949219 16.578125 C 7.949219 16.535156 7.945312 16.496094 7.945312 16.453125 C 7.945312 16.1875 7.984375 16.046875 8.15625 15.84375 C 8.316406 15.722656 8.476562 15.730469 8.671875 15.75 Z M 8.671875 15.75 "/>
<path style=" stroke:none;fill-rule:nonzero;fill:rgb(0%,0%,0%);fill-opacity:1;" d="M 8.71875 11.53125 C 8.851562 11.617188 8.929688 11.671875 9 11.8125 C 9.003906 11.878906 9.007812 11.949219 9.007812 12.015625 C 9.011719 12.082031 9.011719 12.082031 9.011719 12.144531 C 9.011719 12.339844 9.015625 12.535156 9.015625 12.726562 C 9.015625 12.832031 9.019531 12.933594 9.019531 13.035156 C 9.023438 13.183594 9.023438 13.328125 9.023438 13.476562 C 9.027344 13.523438 9.027344 13.570312 9.027344 13.617188 C 9.027344 13.835938 9.027344 13.933594 8.886719 14.113281 C 8.695312 14.253906 8.585938 14.265625 8.34375 14.25 C 8.144531 14.164062 8.058594 14.070312 7.96875 13.875 C 7.949219 13.726562 7.949219 13.578125 7.949219 13.429688 C 7.949219 13.367188 7.949219 13.367188 7.949219 13.300781 C 7.949219 13.210938 7.949219 13.121094 7.949219 13.027344 C 7.949219 12.890625 7.949219 12.753906 7.949219 12.617188 C 7.949219 12.527344 7.949219 12.4375 7.949219 12.351562 C 7.949219 12.308594 7.949219 12.269531 7.949219 12.226562 C 7.953125 11.953125 8 11.796875 8.1875 11.585938 C 8.359375 11.5 8.527344 11.5 8.71875 11.53125 Z M 8.71875 11.53125 "/>
</g>
</svg>
