<?xml version="1.0" encoding="UTF-8"?>
<svg version="1.1" xmlns="http://www.w3.org/2000/svg" width="512" height="512">
<path d="M0 0 C0.64710938 0.40992188 1.29421875 0.81984375 1.9609375 1.2421875 C12.87373206 9.29573458 16.1778341 26.68294508 20.2265625 38.91015625 C20.90261753 40.92958912 21.57950246 42.94874433 22.25717163 44.96763611 C24.02893514 50.2526993 25.79034506 55.54115282 27.54925537 60.83050537 C29.68389129 67.24386002 31.8299436 73.65340109 33.97517967 80.06321621 C35.64492252 85.05258799 37.3127458 90.04256906 38.97427368 95.03468323 C39.5810498 96.85532458 40.18808563 98.6758794 40.79541016 100.49633789 C41.07963144 101.34839845 41.36385273 102.200459 41.65668678 103.07833958 C43.46259726 108.46655473 45.34772246 113.81720981 47.36972046 119.12889099 C48 121 48 121 48 123 C49.15886719 123.09539062 50.31773437 123.19078125 51.51171875 123.2890625 C64.15932309 124.89678524 75.247276 133.31880208 83 143 C91.20489377 154.54427042 93.46639591 165.6048799 93.46875 179.5859375 C93.47636353 180.84588531 93.48397705 182.10583313 93.49182129 183.40396118 C93.50529248 186.71959723 93.50326154 190.0348237 93.49743652 193.35046387 C93.50086494 196.0580964 93.53388155 198.76507609 93.56609344 201.47249413 C93.59817364 204.7186155 93.59385426 207.96468203 93.59375 211.2109375 C93.61014526 212.41930267 93.62654053 213.62766785 93.64343262 214.87265015 C93.5745019 223.20856752 93.5745019 223.20856752 90.65039062 227.23681641 C87.23794873 229.50695783 84.69016773 230.11816712 80.68359375 230.2109375 C65.08193627 230.69317055 51.96858406 232.27046233 40.6875 244.25 C31.35947783 255.40963786 29.87202648 266.90978335 31 281 C32.95981501 291.0115851 39.13674018 299.28470526 46.9765625 305.65234375 C56.85264075 312.23004066 66.19510952 313.19635005 77.6953125 313.4296875 C82.59210789 313.6050951 86.03172986 313.82839015 90 317 C90.52920547 317.41641754 91.05841095 317.83283508 91.60365295 318.26187134 C93.5550349 320.6908899 93.38707555 322.36504156 93.40405273 325.45849609 C93.41673691 326.57751312 93.42942108 327.69653015 93.44248962 328.84945679 C93.43808617 330.66807724 93.43808617 330.66807724 93.43359375 332.5234375 C93.4388356 333.77573151 93.44407745 335.02802551 93.44947815 336.31826782 C93.45591205 338.9766556 93.45598042 341.63418893 93.44604492 344.29248047 C93.4369133 346.99657322 93.44362346 349.69979848 93.46655273 352.40380859 C93.49751098 356.31894724 93.50060897 360.23319482 93.49609375 364.1484375 C93.50732773 365.34060883 93.51856171 366.53278015 93.53013611 367.76107788 C93.4047587 383.13814926 88.23641101 395.64854648 77.6875 406.8125 C66.88757678 417.04592979 53.5660904 422.11679906 38.76717186 422.13142776 C37.7035697 422.13450672 37.7035697 422.13450672 36.61848062 422.13764787 C34.24241148 422.14330245 31.86640059 422.14186253 29.49032593 422.14044189 C27.76953268 422.14302642 26.04874003 422.14603982 24.32794821 422.1494453 C19.59881081 422.15750834 14.86968859 422.15930448 10.14054513 422.16004276 C5.04016479 422.16189453 -0.0602077 422.16944249 -5.1605835 422.17617798 C-16.31356972 422.18975691 -27.46655235 422.19578534 -38.61954546 422.20018864 C-45.5843911 422.20295181 -52.54923535 422.20718931 -59.51408005 422.21169281 C-78.80016556 422.22388493 -98.08624996 422.23418434 -117.37233925 422.2375679 C-118.60657128 422.23778747 -119.84080331 422.23800703 -121.11243632 422.23823325 C-122.96819754 422.23856067 -122.96819754 422.23856067 -124.86144888 422.2388947 C-127.36840733 422.23933817 -129.87536577 422.23978473 -132.38232422 422.24023438 C-133.62586046 422.2404558 -134.8693967 422.24067723 -136.15061586 422.24090537 C-156.2983073 422.24485301 -176.44596257 422.26230625 -196.59364004 422.2855939 C-217.28215641 422.30931353 -237.97065463 422.32177003 -258.65918481 422.32293582 C-270.27372163 422.32385224 -281.88821131 422.32959621 -293.50273514 422.34775543 C-303.39318588 422.36316465 -313.28357492 422.36827201 -323.17403539 422.36001733 C-328.21852398 422.35611376 -333.26288834 422.35702621 -338.3073616 422.37107468 C-342.93017911 422.38383091 -347.55277924 422.38260092 -352.17559652 422.37048396 C-353.84318566 422.36852996 -355.51079028 422.37159164 -357.17835768 422.38032833 C-375.07636311 422.46812211 -390.45534673 419.12707046 -403.75 406.34375 C-412.6240994 397.09989646 -419.02842593 386.30515453 -419.19287109 373.20922852 C-419.20893402 372.04444473 -419.22499695 370.87966095 -419.24154663 369.67958069 C-419.28605786 364.37484338 -419.3274637 359.07025133 -419.35009766 353.76538086 C-419.36345413 350.96491966 -419.39134542 348.16518417 -419.43212891 345.36499023 C-419.49091428 341.32783742 -419.50875164 337.29146458 -419.5234375 333.25390625 C-419.54610687 332.00170792 -419.56877625 330.74950958 -419.59213257 329.45936584 C-419.56856846 319.80287067 -419.56856846 319.80287067 -416.65478516 316.73413086 C-413.23651077 314.50128159 -410.67782627 313.88154712 -406.68359375 313.7890625 C-392.24373936 313.34273973 -379.82712479 312.21835757 -368.734375 301.890625 C-364.52356104 297.36789889 -361.25269264 292.76555491 -359 287 C-358.46632813 285.66582031 -358.46632813 285.66582031 -357.921875 284.3046875 C-355.0630166 274.05640698 -355.82323216 261.31818212 -361 252 C-367.65836343 241.6498707 -376.23356121 234.70906518 -388.2109375 231.38671875 C-393.33485835 230.67625914 -398.52787494 230.67515906 -403.6953125 230.5703125 C-408.59210789 230.3949049 -412.03172986 230.17160985 -416 227 C-416.52920547 226.58580307 -417.05841095 226.17160614 -417.60365295 225.74485779 C-419.57039683 223.28723926 -419.38725889 221.55847855 -419.40405273 218.43383789 C-419.41673691 217.29157242 -419.42942108 216.14930695 -419.44248962 214.97242737 C-419.43955399 213.7350029 -419.43661835 212.49757843 -419.43359375 211.22265625 C-419.4388356 209.94579453 -419.44407745 208.6689328 -419.44947815 207.3533783 C-419.45842065 204.64393271 -419.45597994 201.93478152 -419.44604492 199.2253418 C-419.43465123 195.7858599 -419.45460965 192.34741945 -419.48396206 188.90807438 C-419.50697239 185.59621837 -419.49984305 182.28458974 -419.49609375 178.97265625 C-419.50732773 177.75344986 -419.51856171 176.53424347 -419.53013611 175.27809143 C-419.40766144 159.99466011 -413.76079378 148.03919315 -403.5625 136.8125 C-395.10528229 128.80106937 -385.15409572 124.32533449 -373.7578125 122.43359375 C-360.77474319 119.95064475 -348.6305509 114.95621879 -336.34185028 110.21772003 C-332.85593327 108.87749685 -329.36353424 107.5543811 -325.87158203 106.22998047 C-320.6937825 104.26485094 -315.51765526 102.29543682 -310.34362793 100.32039642 C-296.20651822 94.92487822 -282.03757706 89.61465996 -267.86703491 84.30770874 C-264.10587958 82.89904977 -260.34532806 81.48878699 -256.58498478 80.07796192 C-233.27402334 71.3321658 -209.93977831 62.64994359 -186.59622192 53.99157715 C-166.82088589 46.65658853 -147.05806081 39.28984174 -127.3125 31.875 C-105.0053222 23.49885996 -82.68832607 15.15021458 -60.34545898 6.86968994 C-58.01185761 6.00439677 -55.67872696 5.1378451 -53.34570312 4.27099609 C-49.7605238 2.93927952 -46.17390909 1.61151039 -42.58599854 0.28717041 C-40.69433623 -0.41187738 -38.80393017 -1.11432177 -36.91357422 -1.81689453 C-35.24319092 -2.43153564 -35.24319092 -2.43153564 -33.5390625 -3.05859375 C-32.58209473 -3.41236084 -31.62512695 -3.76612793 -30.63916016 -4.13061523 C-19.93268428 -7.65751261 -9.403978 -6.08101757 0 0 Z M-34.8125 21.08203125 C-35.98010864 21.51858032 -37.14771729 21.95512939 -38.35070801 22.40490723 C-41.5625933 23.60856342 -44.76968599 24.8237054 -47.97531128 26.04385757 C-51.41540323 27.34983641 -54.8613007 28.64031767 -58.30664062 29.93237305 C-64.1878055 32.13995988 -70.0656721 34.35612646 -75.94140625 36.578125 C-84.84043417 39.94291138 -93.74723513 43.28675985 -102.65625 46.625 C-104.1344415 47.17895645 -105.6126316 47.73291662 -107.09082031 48.28688049 C-109.31843576 49.12168896 -111.54605782 49.95647974 -113.77371216 50.79118443 C-119.04394731 52.76614444 -124.31318296 54.74375553 -129.58203125 56.72241211 C-151.43441509 64.92757213 -173.30887514 73.0720759 -195.1942482 81.18878937 C-218.4757849 89.82336616 -241.73948125 98.50371008 -264.98242188 107.24169922 C-277.30516161 111.87324838 -289.6399374 116.46892657 -302 121 C-302 121.33 -302 121.66 -302 122 C-194.42 122 -86.84 122 24 122 C13.29489116 88.95557143 13.29489116 88.95557143 2.34228516 55.99414062 C1.42729034 53.27599646 0.51866874 50.55583029 -0.38525391 47.83398438 C-1.51161896 44.44250287 -2.64806475 41.05456259 -3.79193115 37.66894531 C-4.41899795 35.8049971 -5.0360702 33.93769585 -5.65283203 32.0703125 C-6.22493408 30.38808594 -6.22493408 30.38808594 -6.80859375 28.671875 C-7.13657959 27.6931543 -7.46456543 26.71443359 -7.80249023 25.70605469 C-9.42048502 22.0498153 -11.35052757 18.82473622 -15 17 C-22.35011091 16.31066218 -28.00474327 18.4663437 -34.8125 21.08203125 Z M-390.23828125 155.84375 C-396.02100241 162.92149297 -397.1545841 169.76284197 -397.09765625 178.703125 C-397.0962413 179.54091492 -397.09482635 180.37870483 -397.09336853 181.24188232 C-397.08778197 183.91129157 -397.07523194 186.5806162 -397.0625 189.25 C-397.05748326 191.06249879 -397.05292066 192.87499889 -397.04882812 194.6875 C-397.03781694 199.12503248 -397.02056155 203.56250191 -397 208 C-395.92403564 208.11899658 -394.84807129 208.23799316 -393.73950195 208.3605957 C-392.30155332 208.52779903 -390.86364869 208.6953811 -389.42578125 208.86328125 C-388.71973755 208.94034302 -388.01369385 209.01740479 -387.28625488 209.09680176 C-371.76741994 210.94119854 -358.02565228 219.15150185 -348 231 C-337.39720887 245.02304634 -332.5713501 261.53068598 -334 279 C-336.74862807 297.70555346 -345.68677326 313.42093241 -360.75 324.875 C-372.29063217 332.31998195 -383.62770167 334.5768763 -397 336 C-397.09968046 341.22862331 -397.17184747 346.45668044 -397.21972656 351.68603516 C-397.23970839 353.46087289 -397.26690355 355.23564594 -397.30175781 357.01025391 C-397.55149874 370.06288977 -397.27447126 380.28781886 -387.859375 390.24609375 C-378.00248392 399.54387546 -367.46303734 400.15724562 -354.46508789 400.11352539 C-353.32289795 400.11367142 -352.18070801 400.11381744 -351.00390625 400.1139679 C-347.24347 400.11327343 -343.48308381 400.10550286 -339.72265625 400.09765625 C-337.10949226 400.09579042 -334.49632792 400.09436729 -331.88316345 400.09336853 C-325.7174681 400.09026759 -319.5517906 400.08207095 -313.38610309 400.07201904 C-306.36310227 400.06081939 -299.34010056 400.05533776 -292.31709301 400.05032361 C-277.87805283 400.03988725 -263.43902666 400.02231187 -249 400 C-248.96261719 399.04738281 -248.92523438 398.09476563 -248.88671875 397.11328125 C-248.82097656 395.85902344 -248.75523437 394.60476563 -248.6875 393.3125 C-248.62949219 392.07113281 -248.57148438 390.82976562 -248.51171875 389.55078125 C-247.9860251 385.90302913 -247.17575731 383.93403704 -245 381 C-242.09710549 378.98938864 -239.97156053 378.75644392 -236.5 379.125 C-235.7471875 379.18945312 -234.994375 379.25390625 -234.21875 379.3203125 C-231.11758432 380.27031748 -229.98967755 381.42125977 -228 384 C-227.55111429 386.86596259 -227.30574802 389.3815111 -227.25 392.25 C-227.22035156 392.99507812 -227.19070312 393.74015625 -227.16015625 394.5078125 C-227.0897657 396.33796672 -227.04258168 398.16898769 -227 400 C-193.15600117 400.04580191 -159.31201008 400.08103164 -125.46798713 400.10213066 C-121.47019449 400.104632 -117.47240192 400.10722065 -113.47460938 400.10986328 C-112.28080282 400.11065021 -112.28080282 400.11065021 -111.06287895 400.11145304 C-98.18507114 400.12014991 -85.30728123 400.13591593 -72.42948402 400.15430559 C-59.21055179 400.17302463 -45.99162892 400.18412096 -32.77268398 400.18817699 C-24.61932791 400.19091789 -16.46602245 400.19956732 -8.31268196 400.21583293 C-2.71767555 400.22642455 2.87730478 400.2295957 8.47232048 400.22700275 C11.69782316 400.22572485 14.92321926 400.22875235 18.14871025 400.23841095 C21.65291088 400.24838841 25.1568965 400.2459585 28.66110229 400.24050903 C29.67085708 400.24633472 30.68061186 400.2521604 31.72096527 400.25816262 C43.38841397 400.20925522 53.55107038 398.43533968 62.25 390.25 C69.39963094 382.72111556 71.16238788 375.46270955 71.09765625 365.296875 C71.0962413 364.45908508 71.09482635 363.62129517 71.09336853 362.75811768 C71.08778197 360.08870843 71.07523194 357.4193838 71.0625 354.75 C71.05748326 352.93750121 71.05292066 351.12500111 71.04882812 349.3125 C71.03781694 344.87496752 71.02056155 340.43749809 71 336 C69.92403564 335.88100342 68.84807129 335.76200684 67.73950195 335.6394043 C66.30155332 335.47220097 64.86364869 335.3046189 63.42578125 335.13671875 C62.3667157 335.0211261 62.3667157 335.0211261 61.28625488 334.90319824 C45.31217383 333.00469595 31.15218372 324.32404392 21 312 C10.58563907 296.81913536 5.51783607 279.14636799 8.6484375 260.765625 C12.05607592 243.55218292 20.76105559 229.73890791 34.75 219.125 C46.29063217 211.68001805 57.62770167 209.4231237 71 208 C71.09968046 202.77137669 71.17184747 197.54331956 71.21972656 192.31396484 C71.23970839 190.53912711 71.26690355 188.76435406 71.30175781 186.98974609 C71.55149874 173.93711023 71.27447126 163.71218114 61.859375 153.75390625 C52.17008846 144.61422209 41.81599591 143.84315489 29.02186584 143.87974548 C27.37743166 143.87846385 27.37743166 143.87846385 25.69977659 143.87715632 C22.03168657 143.87551112 18.36364243 143.8810072 14.69555664 143.88647461 C12.06401572 143.88675671 9.43247472 143.88659829 6.80093384 143.8860321 C1.13814381 143.8855085 -4.52463467 143.88863827 -10.1874218 143.89426994 C-18.37479746 143.90240702 -26.56216756 143.90500243 -34.74954683 143.90625793 C-48.03396212 143.90844498 -61.31837126 143.91509566 -74.6027832 143.92456055 C-87.50512664 143.93374364 -100.40746841 143.94082009 -113.30981445 143.94506836 C-114.10550321 143.94533108 -114.90119196 143.94559381 -115.7209925 143.94586449 C-119.71284507 143.94716956 -123.70469766 143.94843326 -127.69655025 143.94967639 C-160.79770464 143.9600382 -193.8988515 143.97764708 -227 144 C-227.02578125 145.10859375 -227.0515625 146.2171875 -227.078125 147.359375 C-227.13441656 148.82295547 -227.19176367 150.28649562 -227.25 151.75 C-227.26417969 152.47960937 -227.27835938 153.20921875 -227.29296875 153.9609375 C-227.4546917 157.51884232 -227.70497556 159.61840992 -229.91040039 162.47094727 C-233.37268708 165.00445603 -236.79140055 165.19539926 -241 165 C-243.91340529 163.82224042 -245.37217635 162.95636218 -247.08984375 160.33984375 C-248.33455761 157.13991414 -248.4349813 154.17033651 -248.625 150.75 C-248.73714844 148.85507813 -248.73714844 148.85507813 -248.8515625 146.921875 C-248.90054688 145.95765625 -248.94953125 144.9934375 -249 144 C-264.08218123 143.9531715 -279.1643568 143.91795816 -294.24659538 143.89637566 C-301.25035922 143.88608585 -308.25407775 143.8720697 -315.2578125 143.84912109 C-322.0205236 143.8269729 -328.78318767 143.81542095 -335.54593277 143.81024551 C-338.12222152 143.80655861 -340.69850779 143.79935904 -343.27477646 143.78853989 C-346.89141083 143.77395978 -350.50785255 143.77202481 -354.12451172 143.77294922 C-355.71163719 143.76216339 -355.71163719 143.76216339 -357.33082581 143.75115967 C-370.51719817 143.78747862 -380.95639494 146.0695043 -390.23828125 155.84375 Z " fill="#000000" transform="translate(419,48)"/>
<path d="M0 0 C5.53846154 3.07692308 5.53846154 3.07692308 7 6 C7.10954636 7.45386016 7.15900992 8.91249095 7.17700195 10.37036133 C7.18983719 11.2750264 7.20267242 12.17969147 7.21589661 13.11177063 C7.22328354 14.09195663 7.23067047 15.07214264 7.23828125 16.08203125 C7.246353 17.08836105 7.25442474 18.09469086 7.26274109 19.1315155 C7.27658717 21.26417311 7.28730697 23.39685294 7.29516602 25.52954102 C7.31237593 28.7890022 7.35625753 32.04744847 7.40039062 35.30664062 C7.41051767 37.3775967 7.41903374 39.44856141 7.42578125 41.51953125 C7.44328934 42.49364456 7.46079742 43.46775787 7.47883606 44.47138977 C7.46485514 48.83986056 7.42781829 51.30425288 5.09838867 55.0925293 C1.5927101 58.27925026 -1.07035677 58.39257777 -5.671875 58.35546875 C-9.62769681 57.75147582 -11.30658423 55.89542195 -14 53 C-14.8991176 50.3026472 -15.13912939 48.67440517 -15.17700195 45.89916992 C-15.18983719 45.07789108 -15.20267242 44.25661224 -15.21589661 43.41044617 C-15.22328354 42.52605362 -15.23067047 41.64166107 -15.23828125 40.73046875 C-15.246353 39.81670975 -15.25442474 38.90295074 -15.26274109 37.96150208 C-15.27657007 36.02733247 -15.28729753 34.09313858 -15.29516602 32.15893555 C-15.31237458 29.20899957 -15.35627051 26.26018579 -15.40039062 23.31054688 C-15.4105184 21.42969573 -15.41903424 19.54883507 -15.42578125 17.66796875 C-15.44328934 16.7896489 -15.46079742 15.91132904 -15.47883606 15.00639343 C-15.45895206 9.36019354 -14.65887959 6.35152815 -11 2 C-7.58542996 -0.59036348 -4.16717829 -0.43108741 0 0 Z " fill="#000000" transform="translate(185,336)"/>
<path d="M0 0 C2.87029869 1.79393668 4.49131638 2.98263276 6 6 C6.1145425 7.4536994 6.16936407 8.91234578 6.19287109 10.37036133 C6.21696548 11.72735893 6.21696548 11.72735893 6.24154663 13.11177063 C6.28598861 17.25102 6.32706103 21.39010887 6.35009766 25.52954102 C6.3666593 27.71291766 6.39395188 29.89624004 6.43212891 32.0793457 C6.48688444 35.2263605 6.50876989 38.3721043 6.5234375 41.51953125 C6.54610687 42.49364456 6.56877625 43.46775787 6.59213257 44.47138977 C6.57747384 49.17303604 6.55907526 51.28190973 3.59228516 55.0925293 C-0.5177659 58.11681154 -2.86669336 58.34802079 -8 58 C-12.22746389 56.17450423 -14.07482911 54.14505929 -16 50 C-16.43570925 46.83158538 -16.42055086 43.69429914 -16.3984375 40.5 C-16.40274277 39.13004883 -16.40274277 39.13004883 -16.40713501 37.73242188 C-16.40917189 35.80598326 -16.40366835 33.87952378 -16.39111328 31.953125 C-16.37505426 29.00994476 -16.3909747 26.0681377 -16.41015625 23.125 C-16.40817375 21.24999698 -16.40432994 19.37499481 -16.3984375 17.5 C-16.40451019 16.62279297 -16.41058289 15.74558594 -16.4168396 14.84179688 C-16.34973373 8.99193747 -15.3597039 5.63197743 -11.375 1.1875 C-7.65177358 -0.67411321 -4.07433308 -0.6754242 0 0 Z " fill="#000000" transform="translate(186,246)"/>
</svg>
