<?xml version="1.0" encoding="UTF-8"?>
<svg version="1.1" xmlns="http://www.w3.org/2000/svg" width="512" height="512">
<path d="M0 0 C1.49382957 -0.00043808 1.49382957 -0.00043808 3.01783752 -0.00088501 C6.29136028 0.00050214 9.56465204 0.01603449 12.83813477 0.03173828 C15.11499406 0.03547059 17.39185496 0.03831653 19.66871643 0.04031372 C25.64786245 0.04793298 31.62691059 0.06756686 37.60601807 0.08972168 C43.71267371 0.11021688 49.81934523 0.11932329 55.92602539 0.12939453 C67.89807349 0.15081432 79.8700491 0.18492968 91.84204102 0.22705078 C91.84750946 1.46613693 91.84750946 1.46613693 91.85308838 2.73025513 C91.89100906 10.52818146 91.94790783 18.3256913 92.02594376 26.12332344 C92.06539536 30.13187382 92.09759496 34.1402053 92.11303711 38.14892578 C92.12821934 42.0201049 92.16269159 45.89068214 92.21035004 49.76159286 C92.22514789 51.23585646 92.23308112 52.71020599 92.23392487 54.18454361 C92.23630132 56.25551204 92.26342991 58.32482614 92.29614258 60.39550781 C92.30502502 61.57243195 92.31390747 62.74935608 92.32305908 63.96194458 C92.95080617 67.91133236 94.38247952 70.11077881 96.84204102 73.22705078 C99.41488077 74.73221412 101.87100643 75.1526318 104.84204102 75.22705078 C109.0543988 73.7964387 111.61435756 72.09618521 113.84204102 68.22705078 C114.9574316 64.78316753 114.99769487 61.50245671 115.04736328 57.89794922 C115.0673085 56.61692322 115.08725372 55.33589722 115.10780334 54.01605225 C115.12478511 52.62284465 115.14166401 51.22963579 115.15844727 49.83642578 C115.17902896 48.40724095 115.20002575 46.97806205 115.22142029 45.54888916 C115.27651551 41.79411628 115.3259799 38.0392896 115.37426758 34.28442383 C115.42457446 30.45014683 115.48021249 26.61594758 115.53540039 22.78173828 C115.64282838 15.26357503 115.74430718 7.74534696 115.84204102 0.22705078 C160.14937011 0.15838501 204.45669357 0.10552217 248.76406538 0.07385479 C253.99489133 0.07010267 259.22571718 0.0662197 264.45654297 0.06225586 C265.49790673 0.06146893 266.53927049 0.060682 267.61219073 0.05987122 C284.4740612 0.04681711 301.33590098 0.02316323 318.19775324 -0.00440761 C335.49941465 -0.03246164 352.80105999 -0.04912548 370.10274321 -0.0552147 C380.7789005 -0.05933114 391.45497107 -0.07233293 402.13110168 -0.09669862 C409.45200601 -0.11255577 416.7728655 -0.11734962 424.09378576 -0.11345335 C428.31764099 -0.11153178 432.54134467 -0.11447872 436.76517296 -0.13056564 C440.63495864 -0.14519635 444.50449126 -0.14588111 448.37428875 -0.1356459 C449.77148376 -0.13438145 451.16869477 -0.13816017 452.56585848 -0.14759877 C469.60591608 -0.25598528 469.60591608 -0.25598528 476.65454102 5.53955078 C482.01490165 12.12513671 483.97429372 16.58108071 483.95556641 25.02709961 C483.95549088 26.16790482 483.95541534 27.30871002 483.95533752 28.48408508 C483.95017624 29.70508408 483.94501495 30.92608307 483.93969727 32.18408203 C483.93828232 33.44218185 483.93686737 34.70028168 483.93540955 35.99650574 C483.93076674 39.32883607 483.92179329 42.6610971 483.91070557 45.9934082 C483.90044604 49.39875695 483.89590222 52.80411288 483.89086914 56.20947266 C483.87984931 62.88201776 483.86311802 69.55453027 483.84204102 76.22705078 C482.74722412 76.76177002 481.65240723 77.29648926 480.52441406 77.84741211 C479.0715792 78.56356526 477.6188676 79.2799685 476.16625977 79.99658203 C475.44660034 80.34724731 474.72694092 80.6979126 473.98547363 81.0592041 C466.18476844 84.92056431 459.76683191 89.83451324 453.84204102 96.22705078 C453.32254883 96.74138672 452.80305664 97.25572266 452.26782227 97.78564453 C439.09669613 111.54873139 433.43392798 130.92522298 433.62719727 149.62939453 C434.75359209 168.49138789 442.77727872 188.27745572 456.84204102 201.22705078 C459.01602372 203.03542826 461.24999855 204.74164805 463.52954102 206.41455078 C464.05684814 206.80658691 464.58415527 207.19862305 465.12744141 207.60253906 C470.91997534 211.66708745 477.39191413 214.37608861 483.84204102 217.22705078 C483.91187674 224.50342638 483.96502127 231.77972846 483.99747753 239.05637264 C484.01306328 242.43605922 484.03416958 245.81551472 484.06835938 249.19506836 C484.10492051 253.08990481 484.12180868 256.98441724 484.13500977 260.87939453 C484.15049362 262.07974838 484.16597748 263.28010223 484.18193054 264.51683044 C484.18352279 272.53102196 483.76777725 279.66872292 478.52954102 286.03955078 C472.13745731 291.24240961 468.05656763 293.35302164 459.88376999 293.35009861 C458.65661734 293.35208966 457.4294647 293.35408071 456.16512561 293.35613209 C454.80130669 293.35327906 453.43748797 293.35033346 452.07366943 293.3473053 C450.62653689 293.34774126 449.17940443 293.34861663 447.73227239 293.34989446 C443.75074889 293.35213452 439.7692522 293.34812479 435.78773212 293.3431164 C431.49601046 293.33880511 427.20429036 293.34025881 422.91256714 293.34101868 C415.4752237 293.34154348 408.03788902 293.33840122 400.60054779 293.33278084 C389.84734983 293.32465995 379.09415611 293.32205001 368.34095541 293.32079285 C350.89535133 293.31860326 333.44975193 293.31194568 316.00415039 293.30249023 C299.05558292 293.29331372 282.10701672 293.28623405 265.15844727 293.28198242 C263.59185093 293.28158834 263.59185093 293.28158834 261.99360618 293.28118629 C256.75426379 293.27988127 251.51492138 293.27861756 246.27557898 293.27737439 C202.79772975 293.26700467 159.31988563 293.24938887 115.84204102 293.22705078 C115.83617477 292.44079819 115.83030853 291.65454559 115.82426453 290.84446716 C115.76622824 283.41478376 115.6940896 275.98543154 115.6063261 268.55604458 C115.56170339 264.7370104 115.52242989 260.9180809 115.49560547 257.09887695 C115.46949101 253.40931255 115.42903231 249.72015275 115.37885475 246.03083992 C115.36224078 244.6271781 115.35069255 243.22344639 115.34442711 241.81970024 C115.46296878 230.24353337 115.46296878 230.24353337 110.21704102 220.28955078 C106.45273925 218.60552104 102.88097403 218.43510313 98.84204102 219.22705078 C96.08634655 221.40864223 94.40615355 223.09882572 92.84204102 226.22705078 C92.72136416 228.35053979 92.66459727 230.47775966 92.63671875 232.60449219 C92.62681915 233.25827347 92.61691956 233.91205475 92.60671997 234.58564758 C92.57509391 236.74993245 92.5503433 238.91423929 92.52563477 241.07861328 C92.50506618 242.57791723 92.48406974 244.07721537 92.46266174 245.57650757 C92.40743114 249.5253021 92.35802626 253.47414904 92.30981445 257.42303467 C92.25960663 261.45150424 92.20391682 265.47989756 92.14868164 269.50830078 C92.04108798 277.41448634 91.93964572 285.32073563 91.84204102 293.22705078 C78.55070833 293.29662707 65.25941914 293.34990096 51.96794128 293.3824873 C45.79586342 293.39812879 39.62391035 293.41933967 33.4519043 293.45336914 C27.49319231 293.48601621 21.53460021 293.50391521 15.57580566 293.51168251 C13.30487176 293.51721638 11.03394426 293.52802266 8.76306152 293.54424095 C5.5770053 293.56608591 2.39144159 293.5690147 -0.79467773 293.56762695 C-2.19622353 293.58380569 -2.19622353 293.58380569 -3.62608337 293.60031128 C-10.26463125 293.56911757 -16.1527958 292.77672756 -21.40014648 288.32470703 C-21.93897461 287.65310547 -22.47780273 286.98150391 -23.03295898 286.28955078 C-23.58725586 285.62052734 -24.14155273 284.95150391 -24.71264648 284.26220703 C-27.65616368 280.1174166 -28.40620404 277.30235343 -28.38500977 272.17333984 C-28.3848587 270.9523761 -28.38470764 269.73141235 -28.384552 268.47344971 C-28.37422943 267.15979431 -28.36390686 265.84613892 -28.35327148 264.49267578 C-28.3495394 263.13075976 -28.34669335 261.76884105 -28.34469604 260.40692139 C-28.33707493 256.82957492 -28.31743967 253.25239193 -28.29528809 249.67510986 C-28.27479677 246.02187308 -28.26568731 242.36860977 -28.25561523 238.71533203 C-28.2341922 231.55249725 -28.20007481 224.38979696 -28.15795898 217.22705078 C-26.99965576 216.62666992 -25.84135254 216.02628906 -24.64794922 215.40771484 C-23.10819445 214.60293635 -21.56856913 213.79791017 -20.02905273 212.99267578 C-19.26798218 212.59902832 -18.50691162 212.20538086 -17.72277832 211.79980469 C-0.94418079 202.9970285 11.40325708 188.22324446 17.5222168 170.2265625 C23.70875233 150.1381267 21.89178219 129.66683948 12.24926758 110.98046875 C4.42366533 96.81464683 -7.03822841 86.51894189 -21.54467773 79.46923828 C-22.18449585 79.15398193 -22.82431396 78.83872559 -23.48352051 78.51391602 C-25.03977867 77.74778052 -26.59860136 76.98685792 -28.15795898 76.22705078 C-28.27420489 68.41195219 -28.36285115 60.59705904 -28.41701984 52.78131104 C-28.44302873 49.15142104 -28.47826357 45.52212586 -28.53515625 41.89257812 C-28.58979256 38.38471701 -28.6194449 34.87742517 -28.6323452 31.36917114 C-28.64597513 29.39053551 -28.68495804 27.41212649 -28.72444153 25.43383789 C-28.7270573 16.97911439 -27.52145563 11.90974923 -21.75019836 5.71630859 C-15.44031831 -0.15069803 -8.10276524 -0.06274265 0 0 Z M93.84204102 108.22705078 C91.52068071 111.70425468 91.57767535 114.8060415 91.55151367 118.91992188 C91.54479645 119.58386459 91.53807922 120.24780731 91.53115845 120.93186951 C91.51219841 123.12148574 91.5082553 125.31079512 91.50610352 127.50048828 C91.49967406 129.02739588 91.49294559 130.55430225 91.4859314 132.08120728 C91.47396355 135.28056697 91.47025004 138.47981872 91.47143555 141.67919922 C91.47163868 145.77044025 91.44434077 149.86098621 91.40989113 153.95206261 C91.3876071 157.10573479 91.38359846 160.2592401 91.384655 163.41298294 C91.38230114 164.92081726 91.37348963 166.42865632 91.35799026 167.93641281 C91.33829877 170.04989443 91.34417874 172.16188276 91.35620117 174.27539062 C91.35335114 175.47577972 91.3505011 176.67616882 91.3475647 177.91293335 C91.94729605 181.93249921 93.31633643 184.07682523 95.84204102 187.22705078 C99.88036998 189.91927009 103.09825816 190.01228446 107.84204102 189.22705078 C111.40895699 187.47369335 113.46245093 185.15116239 114.98503113 181.44444275 C115.87246097 178.11284798 116.10207849 175.31604125 116.11669922 171.8737793 C116.12623123 170.63551895 116.13576324 169.39725861 116.14558411 168.12147522 C116.14532265 166.78296887 116.14438546 165.4444625 116.14282227 164.10595703 C116.14671445 162.718825 116.15105019 161.33169415 116.1558075 159.94456482 C116.16324854 157.04381438 116.16299377 154.14318569 116.15771484 151.24243164 C116.1519214 147.53930589 116.16885792 143.83668051 116.19205952 140.13363743 C116.20684556 137.27073796 116.20766201 134.40795767 116.20454979 131.54502678 C116.20506051 130.18037869 116.21025109 128.81572348 116.22036171 127.45111275 C116.38853619 117.39879005 116.38853619 117.39879005 112.84204102 108.22705078 C109.61823893 105.36958984 107.60848928 104.33654339 103.34204102 103.72705078 C99.16854021 104.32326518 97.05962738 105.53325755 93.84204102 108.22705078 Z " fill="#000000" transform="translate(28.157958984375,188.77294921875)"/>
<path d="M0 0 C5.85257062 6.16892579 8.52066463 15.19452903 11.3359375 23.08203125 C11.68637115 24.05484543 12.03680481 25.02765961 12.39785767 26.029953 C13.12875142 28.06654893 13.85628721 30.1043529 14.58056641 32.14331055 C15.69249141 35.26400877 16.82429322 38.37703969 17.95703125 41.49023438 C18.66788665 43.47873097 19.37756447 45.467649 20.0859375 47.45703125 C20.42539398 48.38417435 20.76485046 49.31131744 21.11459351 50.26655579 C21.41886261 51.13483505 21.72313171 52.00311432 22.03662109 52.89770508 C22.30799896 53.65586014 22.57937683 54.4140152 22.85897827 55.19514465 C23.4104459 57.92177561 23.08655076 59.77985159 22.3125 62.4375 C20.7109375 64.32421875 20.7109375 64.32421875 18.6875 66.125 C4.37893875 79.7947862 -2.55302542 98.40732204 -3.609375 117.92578125 C-3.70955003 122.42864863 -3.6875 126.93351846 -3.6875 131.4375 C-133.3775 131.4375 -263.0675 131.4375 -396.6875 131.4375 C-393.75423235 128.50423235 -392.53757941 127.79525268 -388.78100586 126.49902344 C-387.77389557 126.14663605 -386.76678528 125.79424866 -385.72915649 125.43118286 C-384.63130829 125.05686127 -383.53346008 124.68253967 -382.40234375 124.296875 C-381.25647797 123.89830292 -380.11061218 123.49973083 -378.93002319 123.08908081 C-376.45755933 122.2301397 -373.98426276 121.37434266 -371.50894165 120.52374268 C-367.58447593 119.17496432 -363.66427366 117.81410027 -359.74487305 116.45068359 C-358.42391016 115.99128598 -357.10294153 115.53190488 -355.78196716 115.07254028 C-355.12857298 114.84531406 -354.47517879 114.61808784 -353.80198479 114.38397598 C-351.81625432 113.69390222 -349.83013216 113.00496749 -347.84388733 112.31637573 C-337.20652515 108.62761258 -326.59656945 104.86661048 -316 101.0625 C-312.6630357 99.86641829 -309.32572206 98.6713139 -305.98828125 97.4765625 C-305.12389938 97.16706665 -304.25951752 96.8575708 -303.36894226 96.53869629 C-290.83082518 92.05301177 -278.2774334 87.61016761 -265.72652817 83.16042328 C-246.89558786 76.48404415 -228.06822979 69.79811586 -209.25650024 63.06774902 C-198.24308749 59.12805401 -187.22379965 55.20521545 -176.19921875 51.296875 C-175.56165712 51.07084909 -174.9240955 50.84482319 -174.26721382 50.61194801 C-170.97601298 49.4452064 -167.68477194 48.27857821 -164.39352417 47.11196899 C-143.45869677 39.69125021 -122.53134026 32.250715 -101.625 24.75 C-100.03516296 24.17968048 -100.03516296 24.17968048 -98.41320801 23.59783936 C-87.74919379 19.77181432 -77.08687636 15.9410771 -66.42571163 12.10711956 C-60.85128306 10.10255196 -55.27619502 8.09982239 -49.70095825 6.09750366 C-46.19520373 4.83772738 -42.69024402 3.57575745 -39.18530273 2.3137207 C-37.05977449 1.55017767 -34.93420698 0.78674392 -32.80859375 0.0234375 C-31.8383728 -0.3266185 -30.86815186 -0.6766745 -29.86853027 -1.03733826 C-28.97661987 -1.35711136 -28.08470947 -1.67688446 -27.16577148 -2.00634766 C-26.39297348 -2.28435211 -25.62017548 -2.56235657 -24.82395935 -2.8487854 C-15.6147704 -5.92524581 -8.27475984 -4.81090688 0 0 Z " fill="#000000" transform="translate(488.6875,34.5625)"/>
</svg>
