<?xml version="1.0" encoding="UTF-8"?>
<svg xmlns="http://www.w3.org/2000/svg" xmlns:xlink="http://www.w3.org/1999/xlink" width="24px" height="24px" viewBox="0 0 24 24" version="1.1">
<g id="surface1">
<path style=" stroke:none;fill-rule:evenodd;fill:rgb(0%,0%,0%);fill-opacity:1;" d="M 0.203125 15.617188 L 12.636719 3.183594 C 12.746094 3.199219 12.859375 3.164062 12.941406 3.082031 C 13.023438 3 13.058594 2.886719 13.042969 2.78125 L 15.617188 0.203125 C 15.890625 -0.0703125 16.332031 -0.0703125 16.605469 0.203125 L 18.640625 2.242188 C 18.105469 3.117188 18.21875 4.273438 18.972656 5.027344 C 19.730469 5.785156 20.886719 5.894531 21.757812 5.359375 L 23.796875 7.398438 C 24.066406 7.667969 24.066406 8.113281 23.796875 8.382812 L 21.21875 10.960938 C 21.113281 10.945312 21 10.980469 20.917969 11.0625 C 20.835938 11.144531 20.800781 11.257812 20.816406 11.363281 L 8.382812 23.796875 C 8.113281 24.066406 7.667969 24.066406 7.398438 23.796875 L 5.371094 21.773438 C 5.953125 20.890625 5.855469 19.695312 5.082031 18.921875 C 4.308594 18.144531 3.113281 18.050781 2.230469 18.632812 L 0.203125 16.605469 C -0.0703125 16.332031 -0.0703125 15.890625 0.203125 15.617188 Z M 19.976562 10.121094 C 20.117188 9.980469 20.34375 9.980469 20.484375 10.121094 C 20.625 10.261719 20.625 10.488281 20.484375 10.628906 C 20.34375 10.769531 20.117188 10.769531 19.976562 10.628906 C 19.835938 10.488281 19.835938 10.261719 19.976562 10.121094 Z M 19.03125 9.175781 C 19.171875 9.035156 19.402344 9.035156 19.542969 9.175781 C 19.683594 9.316406 19.683594 9.546875 19.542969 9.6875 C 19.402344 9.828125 19.171875 9.828125 19.03125 9.6875 C 18.890625 9.546875 18.890625 9.316406 19.03125 9.175781 Z M 18.089844 8.234375 C 18.230469 8.09375 18.457031 8.09375 18.597656 8.234375 C 18.738281 8.375 18.738281 8.601562 18.597656 8.742188 C 18.457031 8.882812 18.230469 8.882812 18.089844 8.742188 C 17.949219 8.601562 17.949219 8.375 18.089844 8.234375 Z M 17.144531 7.289062 C 17.285156 7.148438 17.515625 7.148438 17.65625 7.289062 C 17.796875 7.429688 17.796875 7.660156 17.65625 7.800781 C 17.515625 7.941406 17.285156 7.941406 17.144531 7.800781 C 17.003906 7.660156 17.003906 7.429688 17.144531 7.289062 Z M 16.203125 6.347656 C 16.34375 6.207031 16.570312 6.207031 16.710938 6.347656 C 16.851562 6.488281 16.851562 6.714844 16.710938 6.855469 C 16.570312 6.996094 16.34375 6.996094 16.203125 6.855469 C 16.0625 6.714844 16.0625 6.488281 16.203125 6.347656 Z M 15.257812 5.402344 C 15.398438 5.261719 15.628906 5.261719 15.769531 5.402344 C 15.910156 5.542969 15.910156 5.773438 15.769531 5.914062 C 15.628906 6.054688 15.398438 6.054688 15.257812 5.914062 C 15.117188 5.773438 15.117188 5.542969 15.257812 5.402344 Z M 14.316406 4.460938 C 14.457031 4.320312 14.683594 4.320312 14.824219 4.460938 C 14.964844 4.601562 14.964844 4.828125 14.824219 4.96875 C 14.683594 5.109375 14.457031 5.109375 14.316406 4.96875 C 14.175781 4.828125 14.175781 4.601562 14.316406 4.460938 Z M 13.371094 3.515625 C 13.511719 3.375 13.742188 3.375 13.882812 3.515625 C 14.023438 3.65625 14.023438 3.886719 13.882812 4.027344 C 13.742188 4.167969 13.511719 4.167969 13.371094 4.027344 C 13.230469 3.886719 13.230469 3.65625 13.371094 3.515625 Z M 4.972656 14.632812 L 12.664062 6.941406 C 12.980469 6.625 13.496094 6.625 13.8125 6.941406 L 17.347656 10.476562 C 17.664062 10.792969 17.664062 11.308594 17.347656 11.625 L 9.65625 19.316406 C 9.339844 19.632812 8.824219 19.632812 8.507812 19.316406 L 4.972656 15.78125 C 4.65625 15.464844 4.65625 14.949219 4.972656 14.632812 Z M 4.972656 14.632812 "/>
</g>
</svg>
